:SAMPLES-PER-SECOND 30
:FULLY-SPECIFIED
:DEGREES
505
root  0.230299 6.12561 15.9357 -47.5488 -10.1291 -7.63641
RightUpLeg  -83.0628 0.0688437 10.0501
RightLeg  87.2903 15.8886 -4.78086
RightFoot  22.1385 0.180351 -0.853109
RightToes  5.82077e-011 -3.18055e-015 -2.98177e-016
Spine  28.0079 4.41342 -4.63161
Spine1  18.1646 -0.479478 3.93387
HEad  -22.2309 0.671157 -32.8968
LeftShoulder1  -3.88251e-019 9.70628e-020 -3.87848e-018
LeftArm  150.635 73.4423 121.616
LeftForeArm  -30.3852 -27.7387 4.41041
LeftHand  -9.52624 -9.40861 68.0022
RightShoulder  6.43779 9.58449 31.9059
RightArm  32.9421 -57.6237 -20.6268
RightForeArm  19.1673 16.0415 -6.7262
RightHand  -3.04866 7.01369 -27.8255
LeftUpLeg  -89.5194 12.8224 -2.83881
LeftLeg  87.2201 -14.5526 26.3454
LeftFoot  24.1873 -4.84786 14.5115
LeftToes  5.91571e-011 -3.44359e-011 -3.93244e-011
506
root  0.215625 6.10504 15.9562 -47.8555 -10.105 -7.18967
RightUpLeg  -83.6547 0.628819 8.55762
RightLeg  88.6806 15.9667 -4.17447
RightFoot  22.3537 0.164153 -0.802375
RightToes  5.82077e-011 -3.18055e-015 -2.98177e-016
Spine  27.9103 4.1784 -4.52103
Spine1  18.5774 -0.691922 3.95212
HEad  -22.445 0.931896 -32.5165
LeftShoulder1  -3.88251e-019 9.70628e-020 -3.87848e-018
LeftArm  151.497 73.7924 122.178
LeftForeArm  -30.2676 -27.0431 4.17415
LeftHand  -9.60186 -9.53873 67.9439
RightShoulder  6.43244 9.61697 31.8052
RightArm  33.1526 -57.3644 -21.3242
RightForeArm  19.5019 15.9698 -6.70837
RightHand  -3.71375 7.99671 -31.2791
LeftUpLeg  -89.1028 12.5902 -2.82534
LeftLeg  87.0899 -14.5319 26.7454
LeftFoot  24.3284 -5.06186 15.0776
LeftToes  5.91571e-011 -3.44359e-011 -3.93244e-011
507
root  0.184903 6.05581 15.9592 -48.5371 -10.1543 -6.73857
RightUpLeg  -83.9621 1.08357 7.23105
RightLeg  90.2127 16.0166 -3.34843
RightFoot  21.7473 0.36028 -1.43299
RightToes  5.82077e-011 -3.18055e-015 -2.98177e-016
Spine  28.0594 3.87787 -4.03225
Spine1  19.2403 -0.761682 3.66695
HEad  -22.6318 1.00293 -32.1322
LeftShoulder1  -3.88251e-019 9.70628e-020 -3.87848e-018
LeftArm  151.748 74.477 122.463
LeftForeArm  -29.9841 -26.1861 3.89159
LeftHand  -9.61226 -9.70989 67.3766
RightShoulder  6.36631 9.59783 31.4866
RightArm  33.8006 -57.3343 -21.9243
RightForeArm  19.4629 16.1742 -6.87472
RightHand  -4.34065 8.77278 -34.3821
LeftUpLeg  -88.3935 12.4749 -2.62361
LeftLeg  87.044 -14.5439 27.0812
LeftFoot  24.5071 -5.18653 15.3641
LeftToes  5.91571e-011 -3.44359e-011 -3.93244e-011
508
root  0.138633 6.02528 15.9268 -49.1021 -10.4902 -6.40989
RightUpLeg  -84.1684 1.57693 6.36896
RightLeg  91.4439 16.038 -2.81609
RightFoot  20.7319 0.584122 -2.19803
RightToes  5.82077e-011 -3.18055e-015 -2.98177e-016
Spine  28.311 3.59164 -3.11625
Spine1  19.6354 -0.678137 3.35505
HEad  -22.6379 1.02196 -31.7839
LeftShoulder1  -3.88251e-019 9.70628e-020 -3.87848e-018
LeftArm  150.98 75.4114 121.983
LeftForeArm  -29.1967 -25.0052 3.53184
LeftHand  -9.56063 -9.93524 66.289
RightShoulder  6.33201 9.58937 31.3175
RightArm  35.1439 -57.1553 -22.7346
RightForeArm  17.928 16.5917 -6.98308
RightHand  -4.8345 8.82921 -37.8686
LeftUpLeg  -87.7562 12.6074 -2.08962
LeftLeg  87.0229 -14.545 27.1923
LeftFoot  24.5597 -5.19294 15.3601
LeftToes  5.91571e-011 -3.44359e-011 -3.93244e-011
509
root  0.0800848 6.03266 15.8758 -49.3441 -10.8774 -6.10519
RightUpLeg  -84.3922 1.92362 5.90688
RightLeg  92.3189 16.1115 -3.29761
RightFoot  19.9854 0.917796 -3.35794
RightToes  5.82077e-011 -3.18055e-015 -2.98177e-016
Spine  28.5246 3.37158 -2.21084
Spine1  19.6782 -0.629351 3.36764
HEad  -22.513 1.17 -31.6154
LeftShoulder1  -3.88251e-019 9.70628e-020 -3.87848e-018
LeftArm  150.037 76.3776 121.164
LeftForeArm  -28.0667 -23.7472 3.1776
LeftHand  -9.66354 -10.3409 65.4412
RightShoulder  6.34969 9.62086 31.3457
RightArm  35.742 -56.7561 -23.3096
RightForeArm  15.1574 16.8228 -6.98103
RightHand  -5.236 8.43249 -41.825
LeftUpLeg  -87.3334 12.8157 -1.57622
LeftLeg  86.8559 -14.4772 27.3229
LeftFoot  24.585 -5.19114 15.3441
LeftToes  5.91571e-011 -3.44359e-011 -3.93244e-011
510
root  0.00400806 6.02914 15.8416 -49.5131 -10.7337 -5.53565
RightUpLeg  -84.5812 1.79342 5.32215
RightLeg  93.3001 16.2901 -4.57428
RightFoot  19.7774 1.36928 -4.89797
RightToes  5.82077e-011 -3.18055e-015 -2.98177e-016
Spine  28.4477 3.15294 -1.92874
Spine1  20.0983 -0.777637 3.55931
HEad  -22.4798 1.45233 -31.5431
LeftShoulder1  -3.88251e-019 9.70628e-020 -3.87848e-018
LeftArm  150.121 77.3891 121.077
LeftForeArm  -27.3539 -22.7997 2.91412
LeftHand  -9.90184 -10.7822 65.229
RightShoulder  6.32931 9.62999 31.2144
RightArm  34.3598 -56.4576 -22.5562
RightForeArm  13.4398 16.6179 -6.87693
RightHand  -5.3689 8.10966 -43.705
LeftUpLeg  -86.9678 12.7505 -1.64254
LeftLeg  86.5814 -14.3653 27.5459
LeftFoot  24.7544 -5.20857 15.3227
LeftToes  5.91571e-011 -3.44359e-011 -3.93244e-011
511
root  -0.0902064 5.97242 15.8313 -49.8243 -10.1066 -4.65757
RightUpLeg  -84.5426 1.28126 4.4989
RightLeg  94.2269 16.5574 -6.19911
RightFoot  20.1491 1.63367 -5.72715
RightToes  5.82077e-011 -3.18055e-015 -2.98177e-016
Spine  27.9317 2.9233 -2.13246
Spine1  21.3316 -1.03716 3.70744
HEad  -22.4891 1.68112 -31.3428
LeftShoulder1  -3.88251e-019 9.70628e-020 -3.87848e-018
LeftArm  151.289 78.5872 121.904
LeftForeArm  -27.3479 -22.0848 2.68476
LeftHand  -9.93837 -10.8889 65.0688
RightShoulder  6.30307 9.61888 31.0955
RightArm  31.8061 -56.0366 -20.1697
RightForeArm  13.5554 16.0123 -6.35813
RightHand  -5.14368 7.83174 -42.8344
LeftUpLeg  -86.5573 12.4222 -2.12054
LeftLeg  86.3904 -14.2897 27.7376
LeftFoot  25.0193 -5.12603 14.9761
LeftToes  5.91571e-011 -3.44359e-011 -3.93244e-011
512
root  -0.18373 5.89558 15.8085 -50.0903 -9.73004 -3.68987
RightUpLeg  -84.294 0.875526 3.91006
RightLeg  94.2266 16.7956 -7.98097
RightFoot  21.5138 1.51636 -5.13983
RightToes  5.82077e-011 -3.18055e-015 -2.98177e-016
Spine  27.1562 2.80056 -2.04902
Spine1  22.738 -1.22046 4.00919
HEad  -22.1548 1.73537 -31.1066
LeftShoulder1  -3.88251e-019 9.70628e-020 -3.87848e-018
LeftArm  152.673 79.9618 122.734
LeftForeArm  -27.4287 -21.0878 2.33568
LeftHand  -9.62175 -10.5904 64.3717
RightShoulder  6.45435 9.71215 31.7142
RightArm  28.4227 -55.0068 -17.0491
RightForeArm  13.3985 14.8298 -5.20611
RightHand  -5.03311 7.34279 -43.4624
LeftUpLeg  -86.2462 12.1914 -2.27329
LeftLeg  86.2939 -14.2558 27.8899
LeftFoot  25.3296 -4.86959 14.1239
LeftToes  5.91571e-011 -3.44359e-011 -3.93244e-011
513
root  -0.269041 5.85016 15.742 -50.1272 -9.89148 -2.69951
RightUpLeg  -84.0897 0.80839 3.78547
RightLeg  93.0826 16.85 -9.56266
RightFoot  24.1642 1.28116 -4.08195
RightToes  5.82077e-011 -3.18055e-015 -2.98177e-016
Spine  26.4472 2.81735 -1.38521
Spine1  23.5518 -1.26831 4.53744
HEad  -21.1561 1.7314 -30.9842
LeftShoulder1  -3.88251e-019 9.70628e-020 -3.87848e-018
LeftArm  153.329 81.4383 122.624
LeftForeArm  -27.0501 -19.5318 1.8024
LeftHand  -9.18671 -10.1684 63.4071
RightShoulder  6.75381 9.91934 32.8716
RightArm  23.0234 -54.0362 -13.6542
RightForeArm  11.0499 12.3533 -4.41179
RightHand  -5.61579 6.92254 -49.2599
LeftUpLeg  -86.0862 12.1876 -1.8873
LeftLeg  86.1673 -14.1958 27.9262
LeftFoot  25.8431 -4.51371 12.9345
LeftToes  5.91571e-011 -3.44359e-011 -3.93244e-011
514
root  -0.36631 5.82848 15.6553 -50.0951 -10.0182 -1.62014
RightUpLeg  -84.0693 0.7387 3.79703
RightLeg  91.7988 16.7366 -10.3006
RightFoot  27.3365 1.29275 -3.7983
RightToes  5.82077e-011 -3.18055e-015 -2.98177e-016
Spine  25.9515 2.77411 -0.53564
Spine1  23.8697 -1.20243 4.68771
HEad  -19.4796 1.8038 -30.4342
LeftShoulder1  -3.88251e-019 9.70628e-020 -3.87848e-018
LeftArm  151.902 83.0534 120.619
LeftForeArm  -26.4952 -17.7278 1.20652
LeftHand  -8.80429 -9.75027 62.6655
RightShoulder  6.82105 10.002 33.0458
RightArm  16.4696 -54.5457 -9.33416
RightForeArm  7.25292 8.37628 -5.41283
RightHand  -6.69832 7.01264 -57.1398
LeftUpLeg  -85.8778 12.0437 -1.46599
LeftLeg  86.0139 -14.0944 27.6307
LeftFoot  26.5718 -4.15914 11.7107
LeftToes  5.91571e-011 -3.44359e-011 -3.93244e-011
515
root  -0.492314 5.79871 15.5956 -50.1843 -9.68928 -0.634771
RightUpLeg  -84.1552 0.279506 3.8072
RightLeg  91.3188 16.6349 -10.0934
RightFoot  29.6517 1.52915 -4.20621
RightToes  5.82077e-011 -3.18055e-015 -2.98177e-016
Spine  25.6531 2.5155 0.348121
Spine1  24.0847 -0.998366 3.96669
HEad  -17.3014 1.83663 -28.5119
LeftShoulder1  -3.88251e-019 9.70628e-020 -3.87848e-018
LeftArm  144.959 84.7357 113.57
LeftForeArm  -26.1998 -16.2408 0.70088
LeftHand  -8.37879 -9.1754 62.1723
RightShoulder  6.44362 9.81378 31.4333
RightArm  11.1319 -56.6627 -4.86311
RightForeArm  5.97216 4.57015 -6.98855
RightHand  -7.44511 7.28622 -61.3012
LeftUpLeg  -85.5131 11.3839 -1.2562
LeftLeg  85.9271 -14.0064 27.0646
LeftFoot  27.1405 -3.8673 10.745
LeftToes  5.91571e-011 -3.44359e-011 -3.93244e-011
